<svg width="193" height="34" viewBox="0 0 193 34" fill="none" xmlns="http://www.w3.org/2000/svg">
<path d="M31.0469 4L26.8824 24.8783H20.8891L21.1704 23.4714C20.0074 24.597 18.6286 25.1597 17.0342 25.1597C15.9837 25.1597 14.9707 24.8783 13.9953 24.3156C13.0198 23.7528 12.2226 22.9368 11.6035 21.8676C11.0033 20.7796 10.7031 19.504 10.7031 18.0408C10.7031 16.3901 11.0689 14.8894 11.8005 13.5388C12.5508 12.1881 13.5544 11.1283 14.8113 10.3592C16.0681 9.59007 17.4281 9.20552 18.8913 9.20552C20.936 9.20552 22.3991 9.83393 23.2808 11.0908L24.6877 4H31.0469ZM17.1467 17.7313C17.1467 18.4629 17.3437 19.0538 17.7376 19.504C18.1503 19.9354 18.7131 20.1512 19.4259 20.1512C20.2513 20.1512 20.9172 19.8323 21.4237 19.1945C21.9489 18.5567 22.2115 17.7032 22.2115 16.6339C22.2115 15.9023 22.0052 15.3208 21.5925 14.8894C21.1986 14.4392 20.6452 14.2141 19.9324 14.2141C19.107 14.2141 18.4317 14.533 17.9064 15.1708C17.4 15.8086 17.1467 16.6621 17.1467 17.7313Z" fill="white"/>
<path d="M49.6764 9.4869L46.6093 24.8783H40.6159L40.8973 23.4714C39.7343 24.597 38.3462 25.1597 36.7329 25.1597C35.6824 25.1597 34.6695 24.8783 33.694 24.3156C32.7186 23.7528 31.9213 22.9368 31.3023 21.8676C30.702 20.7796 30.4019 19.504 30.4019 18.0408C30.4019 16.3901 30.7677 14.8894 31.4993 13.5388C32.2496 12.1881 33.2532 11.1283 34.51 10.3592C35.7668 9.59007 37.1268 9.20552 38.59 9.20552C40.6535 9.20552 42.1166 9.84331 42.9795 11.1189L43.3172 9.4869H49.6764ZM36.8455 17.7313C36.8455 18.4629 37.0424 19.0538 37.4364 19.504C37.849 19.9354 38.4118 20.1512 39.1246 20.1512C39.95 20.1512 40.6159 19.8323 41.1224 19.1945C41.6477 18.5567 41.9103 17.7032 41.9103 16.6339C41.9103 15.9023 41.7039 15.3208 41.2913 14.8894C40.8973 14.4392 40.3439 14.2141 39.6311 14.2141C38.8057 14.2141 38.1304 14.533 37.6052 15.1708C37.0987 15.8086 36.8455 16.6621 36.8455 17.7313Z" fill="white"/>
<path d="M62.3439 9.20552C63.3944 9.20552 64.4074 9.4869 65.3828 10.0497C66.3583 10.6124 67.1461 11.4378 67.7464 12.5258C68.3654 13.595 68.675 14.8612 68.675 16.3244C68.675 17.9752 68.2998 19.4759 67.5494 20.8265C66.8179 22.1771 65.8236 23.237 64.5668 24.0061C63.31 24.7752 61.95 25.1597 60.4868 25.1597C58.4234 25.1597 56.9602 24.5219 56.0973 23.2463L54.6623 30.3371H48.3031L52.4675 9.4869H58.4609L58.1795 10.8938C59.3425 9.76828 60.7307 9.20552 62.3439 9.20552ZM59.4457 20.1512C60.2711 20.1512 60.937 19.8323 61.4435 19.1945C61.9688 18.5567 62.2314 17.7032 62.2314 16.6339C62.2314 15.9023 62.025 15.3208 61.6123 14.8894C61.2184 14.4392 60.665 14.2141 59.9522 14.2141C59.1268 14.2141 58.4515 14.533 57.9263 15.1708C57.4198 15.8086 57.1665 16.6621 57.1665 17.7313C57.1665 18.4629 57.3635 19.0538 57.7574 19.504C58.1701 19.9354 58.7329 20.1512 59.4457 20.1512Z" fill="white"/>
<path d="M82.046 9.20552C83.0965 9.20552 84.1094 9.4869 85.0849 10.0497C86.0603 10.6124 86.8482 11.4378 87.4485 12.5258C88.0675 13.595 88.377 14.8612 88.377 16.3244C88.377 17.9752 88.0018 19.4759 87.2515 20.8265C86.5199 22.1771 85.5257 23.237 84.2689 24.0061C83.012 24.7752 81.652 25.1597 80.1889 25.1597C78.1254 25.1597 76.6623 24.5219 75.7994 23.2463L74.3643 30.3371H68.0051L72.1696 9.4869H78.1629L77.8816 10.8938C79.0446 9.76828 80.4327 9.20552 82.046 9.20552ZM79.1478 20.1512C79.9731 20.1512 80.6391 19.8323 81.1456 19.1945C81.6708 18.5567 81.9334 17.7032 81.9334 16.6339C81.9334 15.9023 81.7271 15.3208 81.3144 14.8894C80.9205 14.4392 80.3671 14.2141 79.6543 14.2141C78.8289 14.2141 78.1536 14.533 77.6283 15.1708C77.1218 15.8086 76.8686 16.6621 76.8686 17.7313C76.8686 18.4629 77.0656 19.0538 77.4595 19.504C77.8722 19.9354 78.4349 20.1512 79.1478 20.1512Z" fill="white"/>
<path d="M104.917 17.2318C104.917 17.4828 104.897 17.8401 104.859 18.3035H92.7223C92.9347 19.4428 93.485 20.3504 94.3733 21.0263C95.2809 21.6828 96.4009 22.0111 97.7333 22.0111C99.4326 22.0111 100.833 21.4511 101.933 20.3311L103.874 22.5614C103.179 23.3918 102.3 24.0194 101.238 24.4442C100.176 24.869 98.9788 25.0814 97.6464 25.0814C95.9471 25.0814 94.4505 24.7435 93.1567 24.0676C91.8629 23.3918 90.8588 22.4552 90.1443 21.258C89.4491 20.0414 89.1016 18.6704 89.1016 17.1449C89.1016 15.6387 89.4395 14.287 90.1154 13.0897C90.8105 11.8732 91.7664 10.927 92.9829 10.2511C94.1995 9.57523 95.5705 9.2373 97.096 9.2373C98.6023 9.2373 99.9443 9.57523 101.122 10.2511C102.319 10.9076 103.246 11.8442 103.903 13.0608C104.579 14.258 104.917 15.6483 104.917 17.2318ZM97.096 12.1339C95.9374 12.1339 94.9526 12.4814 94.1416 13.1766C93.3498 13.8525 92.8671 14.7601 92.6933 15.8994H101.47C101.315 14.7794 100.842 13.8718 100.051 13.1766C99.2588 12.4814 98.274 12.1339 97.096 12.1339Z" fill="white"/>
<path d="M116.95 24.8787L112.981 19.5201L108.984 24.8787H104.987L111.012 17.029L105.248 9.41109H109.274L113.068 14.4801L116.863 9.41109H120.773L114.98 16.9711L121.034 24.8787H116.95Z" fill="white"/>
<path d="M131.41 9.2373C132.917 9.2373 134.259 9.56558 135.437 10.2221C136.634 10.8787 137.57 11.8056 138.246 13.0028C138.922 14.2001 139.26 15.5807 139.26 17.1449C139.26 18.709 138.922 20.0994 138.246 21.3159C137.57 22.5132 136.634 23.4401 135.437 24.0966C134.259 24.7532 132.917 25.0814 131.41 25.0814C129.325 25.0814 127.674 24.3863 126.457 22.9959V30.498H122.837V9.41109H126.284V11.4387C126.882 10.7049 127.616 10.1545 128.485 9.78765C129.373 9.42075 130.348 9.2373 131.41 9.2373ZM131.005 21.9821C132.337 21.9821 133.428 21.538 134.278 20.6497C135.147 19.7614 135.581 18.5932 135.581 17.1449C135.581 15.6966 135.147 14.5283 134.278 13.6401C133.428 12.7518 132.337 12.3076 131.005 12.3076C130.136 12.3076 129.354 12.5104 128.659 12.9159C127.964 13.3021 127.413 13.8621 127.008 14.5959C126.602 15.3297 126.399 16.1794 126.399 17.1449C126.399 18.1104 126.602 18.9601 127.008 19.6939C127.413 20.4276 127.964 20.9973 128.659 21.4028C129.354 21.789 130.136 21.9821 131.005 21.9821Z" fill="white"/>
<path d="M156.366 17.2318C156.366 17.4828 156.346 17.8401 156.308 18.3035H144.171C144.384 19.4428 144.934 20.3504 145.822 21.0263C146.73 21.6828 147.85 22.0111 149.182 22.0111C150.881 22.0111 152.281 21.4511 153.382 20.3311L155.323 22.5614C154.628 23.3918 153.749 24.0194 152.687 24.4442C151.625 24.869 150.428 25.0814 149.095 25.0814C147.396 25.0814 145.899 24.7435 144.606 24.0676C143.312 23.3918 142.308 22.4552 141.593 21.258C140.898 20.0414 140.55 18.6704 140.55 17.1449C140.55 15.6387 140.888 14.287 141.564 13.0897C142.259 11.8732 143.215 10.927 144.432 10.2511C145.648 9.57523 147.019 9.2373 148.545 9.2373C150.051 9.2373 151.393 9.57523 152.571 10.2511C153.768 10.9076 154.695 11.8442 155.352 13.0608C156.028 14.258 156.366 15.6483 156.366 17.2318ZM148.545 12.1339C147.386 12.1339 146.401 12.4814 145.59 13.1766C144.799 13.8525 144.316 14.7601 144.142 15.8994H152.919C152.764 14.7794 152.291 13.8718 151.499 13.1766C150.708 12.4814 149.723 12.1339 148.545 12.1339Z" fill="white"/>
<path d="M162.421 11.6704C163.464 10.0483 165.299 9.2373 167.925 9.2373V12.6842C167.616 12.6263 167.336 12.5973 167.085 12.5973C165.675 12.5973 164.575 13.0125 163.783 13.8428C162.991 14.6539 162.595 15.8318 162.595 17.3766V24.8787H158.975V9.41109H162.421V11.6704Z" fill="white"/>
<path d="M179.991 24.0387C179.566 24.3863 179.045 24.647 178.427 24.8207C177.828 24.9945 177.191 25.0814 176.515 25.0814C174.816 25.0814 173.503 24.6373 172.576 23.749C171.649 22.8607 171.186 21.567 171.186 19.8676V12.4235H168.637V9.52696H171.186V5.99316H174.806V9.52696H178.948V12.4235H174.806V19.7807C174.806 20.5339 174.99 21.1132 175.357 21.5187C175.723 21.9049 176.254 22.098 176.95 22.098C177.761 22.098 178.437 21.8856 178.977 21.4607L179.991 24.0387Z" fill="white"/>
</svg>
